<?xml version="1.0" standalone="no"?>
<!DOCTYPE svg PUBLIC "-//W3C//DTD SVG 20010904//EN"
 "http://www.w3.org/TR/2001/REC-SVG-20010904/DTD/svg10.dtd">
<svg version="1.0" xmlns="http://www.w3.org/2000/svg"
 width="1000.000000pt" height="1000.000000pt" viewBox="0 0 1000.000000 1000.000000"
 preserveAspectRatio="xMidYMid meet">

<g transform="translate(0.000000,1000.000000) scale(0.100000,-0.100000)"
fill="#ed2227" stroke="none">
<path d="M6780 9155 c-223 -50 -364 -205 -436 -480 -42 -160 -86 -226 -180
-273 -169 -85 -593 -35 -1289 153 -422 114 -527 139 -812 195 -383 74 -462
103 -648 241 -129 96 -218 141 -291 147 -98 8 -214 -50 -214 -106 1 -36 47
-123 89 -168 60 -63 131 -110 306 -202 204 -106 233 -124 316 -194 170 -143
276 -208 414 -253 44 -14 184 -44 310 -65 207 -35 364 -73 405 -99 40 -27
-117 -122 -330 -201 -63 -23 -187 -77 -275 -119 -1340 -644 -2377 -1892 -2659
-3201 -159 -735 -86 -1440 204 -1967 115 -210 320 -441 510 -575 248 -176 575
-302 894 -344 149 -20 441 -22 725 -4 222 14 291 10 360 -21 57 -25 78 -44
103 -94 31 -60 37 -86 58 -277 23 -199 45 -285 91 -347 50 -70 132 -90 216
-52 86 40 145 161 203 419 35 156 61 231 115 327 87 157 176 255 559 620 225
214 400 400 585 620 344 409 440 472 940 615 238 68 294 90 368 146 90 68 138
141 169 255 15 55 18 114 20 404 1 187 7 399 13 470 12 136 57 469 67 495 3 8
10 168 15 355 13 480 30 600 108 760 53 108 118 191 242 310 146 139 261 218
499 340 297 152 390 219 453 326 35 60 62 167 53 214 -15 80 -125 74 -326 -17
-61 -28 -117 -67 -198 -139 -37 -33 -105 -81 -152 -106 -72 -40 -94 -47 -155
-51 -144 -9 -246 34 -311 132 -20 30 -56 112 -80 183 -25 70 -76 191 -115 268
-102 203 -106 264 -39 495 57 193 49 327 -28 474 -40 76 -135 185 -211 240
-69 51 -177 102 -277 131 -113 33 -286 42 -384 20z m-1035 -1449 c111 -35 194
-87 297 -185 208 -197 320 -451 349 -788 18 -208 -3 -431 -78 -823 -58 -309
-81 -450 -93 -570 -32 -335 -46 -413 -97 -516 -68 -140 -198 -207 -327 -170
-78 23 -171 112 -277 267 -96 141 -151 199 -223 237 -46 24 -62 27 -151 27
-118 0 -144 -8 -370 -110 -88 -40 -234 -98 -325 -130 -91 -31 -217 -82 -280
-112 -97 -47 -126 -67 -186 -127 -114 -115 -152 -225 -105 -302 47 -78 158
-88 338 -30 159 50 226 60 372 53 182 -8 351 -54 616 -164 290 -122 421 -207
480 -314 27 -48 30 -63 29 -134 0 -71 -5 -91 -42 -180 -131 -309 -353 -627
-636 -911 -393 -394 -786 -613 -1106 -617 -118 -2 -186 12 -274 55 -340 166
-529 638 -477 1188 28 294 97 594 332 1455 238 866 557 1587 956 2156 224 322
370 480 558 606 239 160 498 210 720 139z"/>
<path d="M9046 4194 c-5 -14 -4 -15 9 -4 17 14 19 20 6 20 -5 0 -12 -7 -15
-16z"/>
</g>
</svg>
